<svg width="108" height="58" viewBox="0 0 68 18" fill="none" xmlns="http://www.w3.org/2000/svg"><title>Logo da Trybe</title><path d="M10.4609 9.54409L13.3938 14.6995C13.4616 14.8268 13.563 14.9326 13.6868 15.0052C13.8106 15.0779 13.952 15.1144 14.0952 15.1109C14.2037 15.113 14.3115 15.0933 14.4123 15.0528C14.5132 15.0124 14.605 14.952 14.6823 14.8753C14.7597 14.7985 14.8211 14.707 14.8629 14.6059C14.9048 14.5049 14.9262 14.3965 14.9259 14.287L14.9409 3.97628C14.9477 3.79061 14.8918 3.60811 14.7824 3.45868C14.6729 3.30925 14.5164 3.20177 14.3385 3.15383C14.1605 3.1059 13.9717 3.12037 13.803 3.19486C13.6343 3.26936 13.4956 3.39946 13.4098 3.56385L10.4609 8.70306C10.3894 8.82837 10.353 8.97093 10.3556 9.11549C10.3526 9.26522 10.3889 9.4131 10.4609 9.54409V9.54409Z" fill="#2FC18C"></path><path d="M7.42312 11.2981L10.3711 16.4383C10.4455 16.5683 10.4871 16.7148 10.4923 16.8649C10.4846 17.0835 10.3941 17.2909 10.2394 17.4441C10.0846 17.5974 9.87747 17.685 9.66063 17.6887C9.51741 17.6896 9.37646 17.6527 9.2518 17.5816L0.407978 12.412C0.283871 12.3428 0.180522 12.2411 0.108769 12.1177C0.0370161 11.9942 -0.000498769 11.8536 0.000154749 11.7105C-0.00197694 11.5991 0.0179333 11.4884 0.0587231 11.3849C0.099513 11.2813 0.160364 11.187 0.237712 11.1075C0.315061 11.0279 0.407353 10.9648 0.509195 10.9216C0.611036 10.8785 0.720382 10.8563 0.83083 10.8563L6.71268 10.8867C6.85705 10.8832 6.9996 10.9198 7.12484 10.9923C7.25008 11.0648 7.35324 11.1706 7.42312 11.2981V11.2981Z" fill="#2FC18C"></path><path d="M6.699 7.30408H0.818164C0.638254 7.30354 0.46353 7.24323 0.321006 7.13247C0.178481 7.0217 0.0760927 6.86666 0.0296724 6.69131C-0.0167479 6.51595 -0.00461527 6.33006 0.0641932 6.16236C0.133002 5.99466 0.254654 5.85449 0.410343 5.76354L9.26817 0.622314C9.39725 0.546796 9.54288 0.504769 9.69202 0.5C9.90965 0.505001 10.1168 0.595473 10.2693 0.752167C10.4218 0.908861 10.5077 1.11941 10.5087 1.33901C10.5035 1.4843 10.4618 1.62588 10.3874 1.75043L7.40943 6.89064C7.33839 7.01728 7.23504 7.1224 7.11011 7.19511C6.98518 7.26782 6.84322 7.30544 6.699 7.30408V7.30408Z" fill="#2FC18C"></path><path d="M68 10.9086C68 7.76677 66.3128 6.10568 63.4811 6.10568C60.8091 6.10568 58.8203 7.90871 58.8203 10.8473C58.8203 14.0083 61.0702 15.5287 63.9628 15.5287C65.3489 15.5154 66.7195 15.2333 68 14.6976L67.5994 12.4687C66.5928 12.9708 65.4875 13.2391 64.3646 13.2539C62.6369 13.2539 61.6368 12.5979 61.4175 11.369H68V10.9086ZM63.4811 8.09541C64.608 8.09541 65.2975 8.72711 65.4788 9.89843H61.4568C61.6863 8.73606 62.3822 8.09157 63.4811 8.09157V8.09541Z" fill="#444955"></path><path d="M53.4972 6.10565C52.9561 6.11374 52.4219 6.22977 51.9255 6.44704C51.4291 6.66431 50.9801 6.97853 50.6046 7.3716V3.12619H50.5843L47.9922 4.14023V15.3254H50.6046V14.2282C50.9783 14.6324 51.4293 14.956 51.9304 15.1795C52.4314 15.403 52.9722 15.5218 53.52 15.5287C56.0906 15.5287 57.7574 13.4827 57.7574 10.7871C57.7549 8.03015 56.0272 6.10565 53.4972 6.10565ZM52.7962 13.2385C51.3905 13.2385 50.5666 12.2653 50.5666 10.7871C50.5666 9.30889 51.3905 8.29357 52.7962 8.29357C54.1221 8.29357 54.9853 9.30761 54.9853 10.7871C54.9853 12.2666 54.1195 13.2385 52.7962 13.2385Z" fill="#444955"></path><path d="M42.2879 11.9211L44.0955 6.30743H47.0286L42.549 17.7777H39.6362L40.8809 14.9006L37.7285 6.30743H40.6604L42.2879 11.9211Z" fill="#444955"></path><path d="M33.8299 7.68587C34.3522 6.83423 35.1963 6.28693 36.4018 6.28693L37.3449 8.82011L37.3258 8.84057C36.9693 8.69267 36.5855 8.62377 36.2002 8.63853C34.6538 8.63853 33.8299 9.69221 33.8299 11.2318V15.3238H31.2188V6.30739H33.8299V7.68587Z" fill="#444955"></path><path d="M27.1014 3.12621V6.30771H29.7126V8.53783H27.1014V11.9418C27.1014 12.9149 27.7238 13.2589 28.407 13.2589C28.8604 13.2557 29.3047 13.1299 29.6936 12.8945H29.7126V15.1029C29.2055 15.3458 28.2663 15.5287 27.6034 15.5287C25.702 15.5287 24.4902 14.2717 24.4902 12.3472V4.14024L27.0811 3.12621H27.1014Z" fill="#444955"></path></svg>